
<svg xmlns="http://www.w3.org/2000/svg" version="1.1" xmlns:xlink="http://www.w3.org/1999/xlink" preserveAspectRatio="none" x="0px" y="0px" width="200px" height="200px" viewBox="0 0 200 200">
<defs/>

<g id="yellow_base">
<g>
<g>
<g>
<path fill="#FCEE95" stroke="none" d="
M -7 -5.95
L -7 208.05 207 208.05 207 -5.95 -7 -5.95 Z"/>
</g>
</g>
</g>
</g>

<g id="yellow_star_pattern">
<g id="Layer_1" transform="matrix( 1, 0, 0, 1, -27.4,-17.75) ">
<g>
<g>
<g>
<path fill="#FCDF5B" stroke="none" d="
M 96.8 191.55
L 114.55 179.45 134.75 187.65 128.1 171.15 140.15 159.55 124.35 162.25 119.6 151.5 111.15 164.85 96.1 167.9 105.2 174.6 96.8 191.55
M 86.7 40.25
L 81.65 48.3 72.8 50.05 78.15 54 72.7 63.65 73 63.9 83.55 56.75 95.7 61.7 91.7 51.85 98.75 45.05 98.7 44.9 89.55 46.7 86.7 40.25
M 182.6 47.65
L 182.4 47.35 164.75 50.85 159.3 38.4 149.55 53.9 132.4 57.3 142.8 64.95 132.25 83.6 132.8 84.1 153.15 70.2 176.65 79.8 168.95 60.8 182.6 47.65 Z"/>
</g>
</g>
</g>

<g>
<g>
<g>
<path fill="#FCDF5B" stroke="none" d="
M 255.5 244.85
L 247.6 225.2 261.85 211.4 243.1 214.6 237.45 201.75 227.4 217.75 209.5 221.3 220.3 229.3 210.3 249.4 231.4 235.05 255.5 244.85
M 55.45 244.9
L 47.55 225.25 61.8 211.45 43.05 214.65 37.4 201.8 27.35 217.8 9.45 221.35 20.25 229.35 10.25 249.45 31.35 235.1 55.45 244.9 Z"/>
</g>
</g>
</g>

<g transform="matrix( 1, 0, 0, 1, 0,-199.8) ">
<g>
<g>
<path fill="#FCDF5B" stroke="none" d="
M 255.5 244.85
L 247.6 225.2 261.85 211.4 243.1 214.6 237.45 201.75 227.4 217.75 209.5 221.3 220.3 229.3 210.3 249.4 231.4 235.05 255.5 244.85
M 55.45 244.9
L 47.55 225.25 61.8 211.45 43.05 214.65 37.4 201.8 27.35 217.8 9.45 221.35 20.25 229.35 10.25 249.45 31.35 235.1 55.45 244.9 Z"/>
</g>
</g>
</g>

<g transform="matrix( 1, 0, 0, 1, 0,-25.2) ">
<g>
<g>
<path fill="#FCDF5B" stroke="none" d="
M 51.85 140.35
L 46.3 126.65 56.1 117.2 56 116.95 43.25 119.5 39.35 110.55 32.35 121.7 20 124.15 27.45 129.65 19.9 143.05 20.25 143.45 34.9 133.4 51.85 140.35
M 220.3 143.45
L 234.95 133.4 251.85 140.35 246.3 126.65 256.15 117.2 256 116.95 243.3 119.5 239.35 110.55 232.35 121.7 220 124.15 227.35 129.65 220.3 143.45 Z"/>
</g>
</g>
</g>

<g>
<g>
<g>
<path fill="#FCDF5B" stroke="none" d="
M 91.65 143.5
L 91.85 143.65 98.85 138.85 106.9 142.15 104.25 135.65 108.95 131.1 108.9 131 102.85 132.2 100.95 127.95 97.55 133.25 91.7 134.45 95.3 137.05 91.65 143.5 Z"/>
</g>
</g>
</g>

<g transform="matrix( 1, 0, 0, 1, 84.1,50.8) ">
<g>
<g>
<path fill="#FCDF5B" stroke="none" d="
M 91.65 143.5
L 91.85 143.65 98.85 138.85 106.9 142.15 104.25 135.65 108.95 131.1 108.9 131 102.85 132.2 100.95 127.95 97.55 133.25 91.7 134.45 95.3 137.05 91.65 143.5 Z"/>
</g>
</g>
</g>
</g>
</g>
</svg>
