
<svg xmlns="http://www.w3.org/2000/svg" version="1.1" xmlns:xlink="http://www.w3.org/1999/xlink" preserveAspectRatio="none" x="0px" y="0px" width="75px" height="75px" viewBox="0 0 75 75">
<defs>
<image id="Bitmap_1" x="0" y="0" width="752" height="493" xlink:href="./images/Bitmap_1.png"/>
</defs>

<g id="Layer_1">
<g>
<g>
<g>
<path fill="#281407" stroke="none" d="
M 74.05 7.45
Q 73.15 3.9 71.75 2.6 70.5 1.45 67.6 1.35
L 6.45 1.35
Q 3.4 1.25 1.95 2.6 0.25 4.1 0.35 7.65
L 0.35 39.45
Q 0.45 41.2 1.2 41.95
L 2.85 43.85
Q 3.7 44.85 3.7 45.85 3.7 46.9 2.45 48.5 1.1 50.15 1 51.1 0.9 51.9 1.2 52.85
L 1.75 54.6
Q 2.1 55.85 1.25 58.4 0.45 61.05 0.35 62.65
L 0.35 70.4
Q 0.45 73.85 4.1 74
L 67.55 74
Q 71.3 74.15 72.65 73.5 74.7 72.5 74.85 69.2
L 74.85 65.05
Q 74.85 64.2 74.45 62.95 74.1 62.05 73.3 60.4 72.5 59.1 73.6 57.55 74.65 55.85 74.85 54.2
L 74.05 22.8
Q 73.9 19.45 71.15 16.45 70.4 15.55 70.4 15 70.4 14.5 70.85 13.9 71.15 13.6 71.8 13.25 74.2 11.85 74.05 7.45
M 70.3 7.4
Q 70.29765625 7.2953125 70.25 7.2
L 70.3 7.25 70.3 7.4
M 69.9 7.3
Q 70.25 8 70.3 9.05 70.05 12 68.35 13.2 67.35 14.35 67.2 14.9 66.9 15.75 67.3 16.8 67.35 17 67.55 17.35 67.75 17.8 68.15 18.45 68.4 18.8 68.6 19.1 69.95 20.35 70.3 22.4
L 70.3 24.95 70.3 26.35 70.3 55.05
Q 70.3 58.9 70.35 59.6
L 70.3 59.6 70.3 64.5
Q 69.45 70.55 62.35 70.4
L 8.5 70.4
Q 4.3 70.45 4.25 66.05
L 4.25 63.25 4.25 61.9
Q 4.25 61.85 4.3 61.8
L 4.3 61.7 4.35 61.65 5.4 58.75 5.75 57.05
Q 5.8 56.75 5.75 56.5 5.7 56.25 5.65 56 5.55 55.65 5.15 54.9 4.75 54.25 4.65 53.85 4.25 52.4 5.5 50.5 6.1 49.55 6.55 48.9 7.15 47.85 7.3 47.4 7.5 46.9 7.6 46.25 7.65 45 7.1 43.55 7.05 43.5 7.05 43.45 6.9 43 6.7 42.5 6.55 42.1 5.95 41.05 5.45 39.95 4.85 38.95 4.25 37.95 4.25 35.75
L 4.25 12.05 4.25 10.95 4.25 8.5 4.25 7.85
Q 4.2 4.5 10.65 4.8
L 65.7 4.8
Q 68.95 4.9 69.9 7.3 Z"/>

<path fill="#5F361A" stroke="none" d="
M 10 63.15
Q 7.15 63.25 5.05 63.25 4.65 63.25 4.25 63.25
L 4.25 66.05
Q 4.3 70.45 8.5 70.4
L 62.35 70.4
Q 69.45 70.55 70.3 64.5
L 70.3 59.6 70.35 59.6
Q 70.3 58.9 70.3 55.05 70.25 56 68.45 57 66.65 58 63.45 58.05 60.85 58 60.2 58.05
L 59 58.1
Q 53.6 58.35 52.5 58.7 51.4 59 54.35 59.3 57.1 59.4 62.7 59.95 68.3 60.4 66.2 63.85 65.45 65 63.7 65.4 61.9 65.8 60.55 65.95 59.15 66.05 54.4 66.05 49.6 66.05 50.5 66 46.4 66.05 33.9 66.1 18.3 66.15 12.3 65.55 6.25 64.9 18.2 63.15 17.85 63.1 17.45 63.15 14.75 63.1 10.95 63.15 10.85 63.15 10.75 63.15
L 10.45 63.15
Q 10.05 63.15 10 63.15
M 16 57.9
L 12.95 57.9
Q 10.75 57.8 8.2 57.45 6.6 57.2 5.9 56.65 5.85 56.6 5.75 56.5 5.8 56.75 5.75 57.05
L 5.4 58.75 4.35 61.65
Q 4.9 60.3 5.75 59.9 6.7 59.4 7.75 59.25 7.75 59.2 14.6 59.05 21.4 58.9 21 58.3 19.6 58 17.95 57.95 16.35 57.9 16 57.9
M 7.6 46.25
Q 7.5 46.9 7.3 47.4 7.15 47.85 6.55 48.9
L 7.1 49.05 19.3 48.75
Q 30.15 48.3 28.6 48 27.3 47.65 26.1 47.5 25.85 47.45 25.65 47.45
L 23.5 47.2
Q 22 47.05 20.35 46.95 20.3 46.95 20.2 46.95
L 19.5 46.9
Q 19.15 46.9 18.85 46.9
L 18.7 46.85
Q 14.85 46.6 13.4 46.55
L 7.6 46.25
M 4.25 8.5
L 4.25 10.95
Q 20.7 10.9 22.45 9.55 22.35 9.05 19.35 8.65 15.25 8 4.55 8.5
L 4.25 8.5
M 59.45 23.2
L 57.3 23.85
Q 56.15 24.6 70.3 24.95
L 70.3 22.4 59.55 23.2 59.45 23.2
M 67.3 16.8
Q 66.9 15.75 67.2 14.9 67.35 14.35 68.35 13.2
L 44.8 14.95 44.75 15
Q 43.35 16.1 52.4 16.75 61.6 17.35 67.55 17.35 67.35 17 67.3 16.8 Z"/>

<path fill="#D18753" stroke="none" d="
M 4.35 61.65
L 4.3 61.7 4.3 61.8
Q 4.25 61.85 4.25 61.9
L 4.25 63.25
Q 4.65 63.25 5.05 63.25 7.15 63.25 10 63.15 10.05 63.15 10.45 63.15
L 10.75 63.15
Q 10.85 63.15 10.95 63.15 14.75 63.1 17.45 63.15
L 17.6 63.05
Q 17.7 62.9 17.7 62.85 17 62.8 16 62.75 10.75 62.4 9.3 61.6 8.05 61.05 7.85 60.05
L 7.75 59.25
Q 6.7 59.4 5.75 59.9 4.9 60.3 4.35 61.65
M 7.1 49.05
L 6.55 48.9
Q 6.1 49.55 5.5 50.5 4.25 52.4 4.65 53.85 4.75 54.25 5.15 54.9 5.55 55.65 5.65 56 5.7 56.25 5.75 56.5 5.85 56.6 5.9 56.65 6.6 57.2 8.2 57.45 10.75 57.8 12.95 57.9
L 16 57.9
Q 16.35 57.9 17.95 57.95 19.6 58 21 58.3 21 58.2 20.95 58.1
L 20.7 57.9
Q 19.9 57.45 17.65 57.35 15.55 57.2 13.75 56.95 13 56.85 12.4 56.75 10.5 56.4 9.25 55.7 8.6 55.35 8.1 54.85 7.8 54.55 7.55 54.2 7.05 53.35 7.05 52.3 7.05 50.15 7.1 49.05
M 8.05 15.65
Q 6.6 15.4 6.3 13.35 5.95 11.35 4.25 12.05
L 4.25 35.75
Q 4.25 37.95 4.85 38.95 5.45 39.95 5.95 41.05 6.55 42.1 6.7 42.5 6.9 43 7.05 43.45 7.05 43.5 7.1 43.55 7.65 45 7.6 46.25
L 13.4 46.55
Q 14.85 46.6 18.7 46.85
L 18.85 46.9
Q 19.15 46.9 19.5 46.9
L 20.2 46.95
Q 20.3 46.95 20.35 46.95 22 47.05 23.5 47.2
L 25.65 47.45
Q 25.85 47.45 26.1 47.5 26.1 47.35 26.1 47.25 26.05 46.95 25.55 46.85 24.35 46.4 22.25 46.3 19.7 46.1 16.4 45.55 14 45.15 12.7 44.75 10.7 44.1 9.45 42.95 7.05 40.8 6.5 36.05 6.5 35.95 6.5 35.9 6.4 32.15 6.5 27.9 6.55 25.15 6.45 20.65 6.65 19.1 8.55 18.65
L 10.5 17.95
Q 10.85 17.8 10.95 17.6 11.25 17.15 10.9 16.7 10.75 16.45 10.1 16.1 9.55 15.9 8.05 15.65
M 67.95 27.65
Q 67.75 29.3 67.7 30.7
L 65 31.55 64.3 31.9
Q 63.9 32.15 63.9 32.55 64 33.05 64.9 33.35
L 67.65 34.2
Q 67.6 35.9 67.6 38.4 67.5 42.8 67.45 47.85
L 67.4 47.85
Q 67.4 49.05 67.4 50.65 67.4 51.05 67.4 51.35 67.35 51.4 67.3 52.3 67.2 53.1 66.25 54.6 65.25 56.05 63.65 56.25 62 56.4 61.15 56.55
L 61.6 56.45
Q 58.5 56.85 56.5 57.1 54.45 57.35 53.45 57.6 52.4 57.85 52.4 58.35 52.4 58.55 52.5 58.7 53.6 58.35 59 58.1
L 60.2 58.05
Q 60.85 58 63.45 58.05 66.65 58 68.45 57 70.25 56 70.3 55.05
L 70.3 26.35
Q 69.9 26.3 69.5 26.35 68.65 26.45 68.25 27.1
L 67.95 27.65
M 68.6 19.1
Q 68.5 19.1 68.35 19.15 67.95 19.35 67.75 21.3
L 59.55 23.2 70.3 22.4
Q 69.95 20.35 68.6 19.1
M 61.9 9.1
Q 62.65 9.1 65.1 9.4 67.6 9.65 67.6 10.7 67.3 11.1 66.45 11.4 65 11.9 62.9 12.15
L 48.7 13.6
Q 46.45 13.8 45.45 14.3 45 14.5 44.85 14.75 44.75 14.9 44.75 15
L 44.8 14.95 68.35 13.2
Q 70.05 12 70.3 9.05 70.25 8 69.9 7.3 68.95 4.9 65.7 4.8
L 10.65 4.8
Q 4.2 4.5 4.25 7.85
L 4.25 8.5 4.55 8.5
Q 15.25 8 19.35 8.65 22.35 9.05 22.45 9.55 29.55 9.3 38.95 9.1 53.85 8.8 56.3 8.95 58.65 9.05 61.9 9.1 Z"/>

<path fill="#985629" stroke="none" d="
M 65.1 9.4
Q 62.65 9.1 61.9 9.1 58.65 9.05 56.3 8.95 53.85 8.8 38.95 9.1 29.55 9.3 22.45 9.55 20.7 10.9 4.25 10.95
L 4.25 12.05
Q 5.95 11.35 6.3 13.35 6.6 15.4 8.05 15.65 9.55 15.9 10.1 16.1 10.75 16.45 10.9 16.7 11.25 17.15 10.95 17.6 10.85 17.8 10.5 17.95
L 8.55 18.65
Q 6.65 19.1 6.45 20.65 6.55 25.15 6.5 27.9 6.4 32.15 6.5 35.9 6.5 35.95 6.5 36.05 7.05 40.8 9.45 42.95 10.7 44.1 12.7 44.75 14 45.15 16.4 45.55 19.7 46.1 22.25 46.3 24.35 46.4 25.55 46.85 26.05 46.95 26.1 47.25 26.1 47.35 26.1 47.5 27.3 47.65 28.6 48 30.15 48.3 19.3 48.75
L 7.1 49.05
Q 7.05 50.15 7.05 52.3 7.05 53.35 7.55 54.2 7.8 54.55 8.1 54.85 8.6 55.35 9.25 55.7 10.5 56.4 12.4 56.75 13 56.85 13.75 56.95 15.55 57.2 17.65 57.35 19.9 57.45 20.7 57.9
L 20.95 58.1
Q 21 58.2 21 58.3 21.4 58.9 14.6 59.05 7.75 59.2 7.75 59.25
L 7.85 60.05
Q 8.05 61.05 9.3 61.6 10.75 62.4 16 62.75 17 62.8 17.7 62.85 17.7 62.9 17.6 63.05
L 17.45 63.15
Q 17.85 63.1 18.2 63.15 6.25 64.9 12.3 65.55 18.3 66.15 33.9 66.1 46.4 66.05 50.5 66 49.6 66.05 54.4 66.05 59.15 66.05 60.55 65.95 61.9 65.8 63.7 65.4 65.45 65 66.2 63.85 68.3 60.4 62.7 59.95 57.1 59.4 54.35 59.3 51.4 59 52.5 58.7 52.4 58.55 52.4 58.35 52.4 57.85 53.45 57.6 54.45 57.35 56.5 57.1 58.5 56.85 61.6 56.45
L 61.15 56.55
Q 62 56.4 63.65 56.25 65.25 56.05 66.25 54.6 67.2 53.1 67.3 52.3 67.35 51.4 67.4 51.35 67.4 51.05 67.4 50.65 67.4 49.05 67.4 47.85
L 67.45 47.85
Q 67.5 42.8 67.6 38.4 67.6 35.9 67.65 34.2
L 64.9 33.35
Q 64 33.05 63.9 32.55 63.9 32.15 64.3 31.9
L 65 31.55 67.7 30.7
Q 67.75 29.3 67.95 27.65
L 68.25 27.1
Q 68.65 26.45 69.5 26.35 69.9 26.3 70.3 26.35
L 70.3 24.95
Q 56.15 24.6 57.3 23.85
L 59.45 23.2 59.55 23.2 67.75 21.3
Q 67.95 19.35 68.35 19.15 68.5 19.1 68.6 19.1 68.4 18.8 68.15 18.45 67.75 17.8 67.55 17.35 61.6 17.35 52.4 16.75 43.35 16.1 44.75 15 44.75 14.9 44.85 14.75 45 14.5 45.45 14.3 46.45 13.8 48.7 13.6
L 62.9 12.15
Q 65 11.9 66.45 11.4 67.3 11.1 67.6 10.7 67.6 9.65 65.1 9.4 Z"/>

<path fill="#8E7043" stroke="none" d="
M 70.25 7.2
Q 70.29765625 7.2953125 70.3 7.4
L 70.3 7.25 70.25 7.2 Z"/>
</g>
</g>
</g>

<g transform="matrix( 1, 0, 0, 1, -297,83) ">
<use xlink:href="#Bitmap_1"/>
</g>
</g>
</svg>
