<?xml version="1.0" encoding="utf-8"?>
<!-- Generator: Adobe Illustrator 23.1.0, SVG Export Plug-In . SVG Version: 6.00 Build 0)  -->
<svg version="1.1" id="Layer_1" xmlns="http://www.w3.org/2000/svg" xmlns:xlink="http://www.w3.org/1999/xlink" x="0px" y="0px"
	 viewBox="0 0 875.4 418.4" style="enable-background:new 0 0 875.4 418.4;" xml:space="preserve">
<style type="text/css">
	.st0{fill:#FAED6C;}
</style>
<g>
	<path class="st0" d="M331.4,64.8c-0.9-2.1-3.1-3.3-5.4-2.9c0,0-117.2,21.2-124.3,22.5C198.9,78,166.8,6,166.8,6
		c-0.8-1.7-2.5-2.9-4.4-2.9s-3.7,1.1-4.5,2.8c0,0-41.3,88.9-43.3,93.3C110,100.1,9,118.3,9,118.3c-2,0.4-3.6,2-3.9,4
		c-0.1,0.6-0.1,1.1,0,1.7c0.3,1.4,1.1,2.6,2.4,3.4c0,0,67.1,37.4,74.3,41.4c-3.6,7.6-49.9,104.8-49.9,104.8c-0.5,1-0.6,2-0.4,3
		c0.2,1.1,0.8,2.1,1.7,2.9c1.7,1.4,4.2,1.5,6,0.1l45.9-34.4c-0.2,0.1,23.3-16,23.3-16s32-21.9,36.3-24.8
		c5.1,2.8,137.7,76.9,137.7,76.9c1.8,1,4.1,0.8,5.7-0.7c1.2-1.2,1.8-2.9,1.5-4.5c-0.1-0.4-0.2-0.8-0.4-1.2c0,0-57.9-124-61.1-130.9
		c5.3-3.9,30.6-22.2,30.6-22.2l71.1-51.1c1.6-1.1,2.3-3,2-4.9C331.7,65.4,331.6,65.1,331.4,64.8z M285.5,87.3l-53,38.2
		c0,0-18.8,13.6-22.8,16.5c2.4,5.1,45.5,97.5,45.5,97.5c0.1,0.3,0.2,0.6,0.3,0.9c0.2,1.2-0.2,2.5-1.1,3.3c-1.2,1.1-2.9,1.3-4.2,0.5
		c0,0-98.8-55.2-102.6-57.3c-3.2,2.2-27,18.5-27,18.5s-17.5,12-17.3,11.9l-34.2,25.6c-1.3,1-3.2,1-4.5-0.1c-0.7-0.6-1.1-1.3-1.3-2.1
		c-0.1-0.7,0-1.5,0.3-2.2c0,0,34.4-72.4,37.2-78.1c-5.4-3-55.3-30.9-55.3-30.9c-1-0.5-1.6-1.5-1.8-2.5c-0.1-0.4-0.1-0.8,0-1.3
		c0.3-1.5,1.4-2.7,2.9-3c0,0,75.2-13.6,78.8-14.2c1.5-3.3,32.3-69.5,32.3-69.5c0.6-1.3,1.9-2.1,3.3-2.1c1.4,0,2.7,0.9,3.3,2.2
		c0,0,23.9,53.6,26,58.4c5.3-1,92.6-16.8,92.6-16.8c1.7-0.3,3.3,0.6,4,2.2c0.1,0.2,0.2,0.5,0.2,0.8C287.2,85,286.7,86.4,285.5,87.3z
		"/>
	<path class="st0" d="M868.5,166.6c-0.9-2.1-3.1-3.3-5.4-2.9c0,0-117.2,21.2-124.3,22.5c-2.8-6.4-34.9-78.4-34.9-78.4
		c-0.8-1.7-2.5-2.9-4.4-2.9s-3.7,1.1-4.5,2.8c0,0-41.3,88.9-43.3,93.3c-4.8,0.9-105.7,19.1-105.7,19.1c-2,0.4-3.6,2-3.9,4
		c-0.1,0.6-0.1,1.1,0,1.7c0.3,1.4,1.1,2.6,2.4,3.4c0,0,67.1,37.4,74.3,41.4c-3.6,7.6-49.9,104.8-49.9,104.8c-0.5,1-0.6,2-0.4,3
		c0.2,1.1,0.8,2.1,1.7,2.9c1.7,1.4,4.2,1.5,6,0.1l45.9-34.4c-0.2,0.1,23.3-16,23.3-16s32-21.9,36.3-24.8
		c5.1,2.8,137.7,76.9,137.7,76.9c1.8,1,4.1,0.8,5.7-0.7c1.2-1.2,1.8-2.9,1.5-4.5c-0.1-0.4-0.2-0.8-0.4-1.2c0,0-57.9-124-61.1-130.9
		c5.3-3.9,30.6-22.2,30.6-22.2l71.1-51.3c1.6-1.1,2.3-3,2-4.9C868.7,167.2,868.6,166.9,868.5,166.6z M822.6,189.1l-53,38.2
		c0,0-18.8,13.6-22.8,16.5c2.4,5.1,45.5,97.5,45.5,97.5c0.1,0.3,0.2,0.6,0.3,0.9c0.2,1.2-0.2,2.5-1.1,3.3c-1.2,1.1-2.9,1.3-4.2,0.5
		c0,0-98.8-55.2-102.6-57.3c-3.2,2.2-27,18.5-27,18.5s-17.5,12-17.3,11.9l-34.2,25.6c-1.3,1-3.2,1-4.5-0.1c-0.7-0.6-1.1-1.3-1.3-2.1
		c-0.1-0.7,0-1.5,0.3-2.2c0,0,34.4-72.4,37.2-78.1c-5.4-3-55.3-30.9-55.3-30.9c-1-0.5-1.6-1.5-1.8-2.5c-0.1-0.4-0.1-0.8,0-1.3
		c0.3-1.5,1.4-2.7,2.9-3c0,0,75.2-13.6,78.8-14.2c1.5-3.3,32.3-69.5,32.3-69.5c0.6-1.3,1.9-2.1,3.3-2.1c1.4,0,2.7,0.9,3.3,2.2
		c0,0,23.9,53.6,26,58.4c5.3-1,92.6-16.8,92.6-16.8c1.7-0.3,3.3,0.6,4,2.2c0.1,0.2,0.2,0.5,0.2,0.8
		C824.3,186.8,823.7,188.2,822.6,189.1z"/>
	<path class="st0" d="M560.7,53.7c-0.4-1-1.4-1.5-2.4-1.3c0,0-53.2,9.6-56.4,10.2C500.5,59.7,486,27,486,27c-0.4-0.8-1.1-1.3-2-1.3
		s-1.7,0.5-2,1.3c0,0-18.8,40.4-19.7,42.4c-2.2,0.4-48,8.7-48,8.7c-0.9,0.2-1.6,0.9-1.8,1.8c0,0.3,0,0.5,0,0.8
		c0.1,0.6,0.5,1.2,1.1,1.5c0,0,30.5,17,33.7,18.8c-1.7,3.5-22.6,47.6-22.6,47.6c-0.2,0.4-0.3,0.9-0.2,1.4c0.1,0.5,0.4,1,0.8,1.3
		c0.8,0.6,1.9,0.7,2.7,0.1l20.8-15.6c-0.1,0,10.6-7.3,10.6-7.3s14.5-9.9,16.5-11.3c2.3,1.3,62.5,34.9,62.5,34.9
		c0.8,0.5,1.9,0.3,2.6-0.3c0.6-0.5,0.8-1.3,0.7-2c0-0.2-0.1-0.4-0.2-0.5c0,0-26.3-56.3-27.7-59.4c2.4-1.8,13.9-10.1,13.9-10.1
		L560,56.5c0.7-0.5,1-1.4,0.9-2.2C560.8,54,560.7,53.8,560.7,53.7z M539.8,63.9l-24,17.3c0,0-8.5,6.2-10.4,7.5
		c1.1,2.3,20.7,44.3,20.7,44.3c0.1,0.1,0.1,0.3,0.1,0.4c0.1,0.5-0.1,1.1-0.5,1.5c-0.5,0.5-1.3,0.6-1.9,0.2c0,0-44.9-25.1-46.6-26
		c-1.5,1-12.3,8.4-12.3,8.4s-7.9,5.5-7.9,5.4l-15.5,11.6c-0.6,0.5-1.4,0.4-2,0c-0.3-0.3-0.5-0.6-0.6-1c-0.1-0.3,0-0.7,0.1-1
		c0,0,15.6-32.9,16.9-35.5c-2.4-1.4-25.1-14-25.1-14c-0.4-0.2-0.7-0.7-0.8-1.1c0-0.2,0-0.4,0-0.6c0.1-0.7,0.6-1.2,1.3-1.4
		c0,0,34.2-6.2,35.8-6.4c0.7-1.5,14.7-31.6,14.7-31.6c0.3-0.6,0.9-1,1.5-1s1.2,0.4,1.5,1c0,0,10.8,24.3,11.8,26.5
		c2.4-0.4,42-7.6,42-7.6c0.8-0.1,1.5,0.3,1.8,1c0,0.1,0.1,0.2,0.1,0.3C540.6,62.9,540.4,63.5,539.8,63.9z"/>
	<path class="st0" d="M542.4,277c-0.2-0.5-0.8-0.8-1.3-0.7c0,0-29.3,5.3-31.1,5.6c-0.7-1.6-8.7-19.6-8.7-19.6
		c-0.2-0.4-0.6-0.7-1.1-0.7s-0.9,0.3-1.1,0.7c0,0-10.3,22.2-10.8,23.3c-1.2,0.2-26.4,4.8-26.4,4.8c-0.5,0.1-0.9,0.5-1,1
		c0,0.1,0,0.3,0,0.4c0.1,0.4,0.3,0.7,0.6,0.8c0,0,16.8,9.4,18.6,10.4c-0.9,1.9-12.5,26.2-12.5,26.2c-0.1,0.2-0.1,0.5-0.1,0.7
		c0.1,0.3,0.2,0.5,0.4,0.7c0.4,0.4,1.1,0.4,1.5,0l11.5-8.6l5.8-4c0,0,8-5.5,9.1-6.2c1.3,0.7,34.4,19.2,34.4,19.2
		c0.5,0.3,1,0.2,1.4-0.2c0.3-0.3,0.4-0.7,0.4-1.1c0-0.1,0-0.2-0.1-0.3c0,0-14.5-31-15.3-32.7c1.3-1,7.7-5.5,7.7-5.5l17.8-12.8
		c0.4-0.3,0.6-0.8,0.5-1.2C542.4,277.2,542.4,277.1,542.4,277z M530.9,282.6l-13.2,9.6c0,0-4.7,3.4-5.7,4.1
		c0.6,1.3,11.4,24.4,11.4,24.4c0,0.1,0.1,0.1,0.1,0.2c0.1,0.3,0,0.6-0.3,0.8c-0.3,0.3-0.7,0.3-1.1,0.1c0,0-24.7-13.8-25.7-14.3
		c-0.8,0.6-6.8,4.6-6.8,4.6s-4.4,3-4.3,3l-8.5,6.4c-0.3,0.3-0.8,0.2-1.1,0c-0.2-0.1-0.3-0.3-0.3-0.5s0-0.4,0.1-0.6
		c0,0,8.6-18.1,9.3-19.5c-1.3-0.7-13.8-7.7-13.8-7.7c-0.2-0.1-0.4-0.4-0.5-0.6c0-0.1,0-0.2,0-0.3c0.1-0.4,0.4-0.7,0.7-0.7
		c0,0,18.8-3.4,19.7-3.6c0.4-0.8,8.1-17.4,8.1-17.4c0.1-0.3,0.5-0.5,0.8-0.5c0.4,0,0.7,0.2,0.8,0.5c0,0,6,13.4,6.5,14.6
		c1.3-0.2,23.2-4.2,23.2-4.2c0.4-0.1,0.8,0.1,1,0.5c0,0.1,0,0.1,0.1,0.2C531.3,282.1,531.2,282.4,530.9,282.6z"/>
	<path class="st0" d="M374.5,175.6c-0.1-0.3-0.5-0.6-0.8-0.5c0,0-16.6,3-17.6,3.2c-0.4-1.1-5.3-13-5.3-13c-0.1-0.3-0.4-0.5-0.6-0.5
		c-0.3,0-0.5,0.2-0.6,0.4c0,0-5.5,14.4-5.8,15.1c-0.7,0.1-15,2.7-15,2.7c-0.3,0.1-0.5,0.3-0.5,0.6c0,0.1,0,0.2,0,0.3
		c0,0.2,0.2,0.4,0.4,0.6c0,0,9.7,6.4,10.8,7.1c-0.5,1.2-6.7,17-6.7,17c-0.1,0.2-0.1,0.3,0,0.5c0,0.2,0.1,0.4,0.3,0.5
		c0.3,0.2,0.6,0.3,0.9,0l6.4-5.5l3.3-2.5c0,0,4.5-3.5,5.1-3.9c0.7,0.5,20,13.2,20,13.2c0.3,0.2,0.6,0.1,0.8-0.1
		c0.2-0.2,0.2-0.5,0.2-0.7c0-0.1,0-0.1-0.1-0.2c0,0-8.8-20.6-9.3-21.7c0.7-0.6,4.3-3.5,4.3-3.5l9.9-8.1c0.2-0.2,0.3-0.5,0.3-0.8
		C374.5,175.7,374.5,175.6,374.5,175.6z M368,179.1l-7.4,6c0,0-2.6,2.2-3.2,2.6c0.4,0.9,6.9,16.2,6.9,16.2v0.1c0,0.2,0,0.4-0.1,0.5
		c-0.2,0.2-0.4,0.2-0.6,0.1c0,0-14.3-9.5-14.9-9.8c-0.4,0.3-3.8,2.9-3.8,2.9l-2.4,1.9l-4.8,4.1c-0.2,0.2-0.5,0.1-0.6,0
		s-0.2-0.2-0.2-0.4c0-0.1,0-0.2,0-0.4c0,0,4.6-11.7,5-12.7c-0.8-0.5-8-5.3-8-5.3c-0.1-0.1-0.2-0.2-0.3-0.4c0-0.1,0-0.1,0-0.2
		c0-0.2,0.2-0.4,0.4-0.5c0,0,10.7-1.9,11.2-2c0.2-0.5,4.3-11.3,4.3-11.3c0.1-0.2,0.3-0.3,0.5-0.3s0.4,0.2,0.5,0.4
		c0,0,3.6,8.9,3.9,9.7c0.8-0.1,13.1-2.4,13.1-2.4c0.2,0,0.5,0.1,0.6,0.4v0.1C368.3,178.7,368.2,178.9,368,179.1z"/>
	<path class="st0" d="M191.7,285.8c-0.2-0.5-0.8-0.8-1.3-0.7c0,0-29.3,5.3-31.1,5.6c-0.7-1.6-8.7-19.6-8.7-19.6
		c-0.2-0.4-0.6-0.7-1.1-0.7s-0.9,0.3-1.1,0.7c0,0-10.3,22.2-10.8,23.3c-1.2,0.2-26.4,4.8-26.4,4.8c-0.5,0.1-0.9,0.5-1,1
		c0,0.1,0,0.3,0,0.4c0.1,0.4,0.3,0.7,0.6,0.8c0,0,16.8,9.4,18.6,10.4c-0.9,1.9-12.5,26.2-12.5,26.2c-0.1,0.2-0.1,0.5-0.1,0.7
		c0.1,0.3,0.2,0.5,0.4,0.7c0.4,0.4,1.1,0.4,1.5,0l11.5-8.6l5.8-4c0,0,8-5.5,9.1-6.2c1.3,0.7,34.4,19.2,34.4,19.2
		c0.5,0.3,1,0.2,1.4-0.2c0.3-0.3,0.4-0.7,0.4-1.1c0-0.1,0-0.2-0.1-0.3c0,0-14.5-31-15.3-32.7c1.3-1,7.7-5.5,7.7-5.5l17.8-12.8
		c0.4-0.3,0.6-0.8,0.5-1.2C191.7,286,191.7,285.9,191.7,285.8z M180.2,291.4L167,301c0,0-4.7,3.4-5.7,4.1
		c0.6,1.3,11.4,24.4,11.4,24.4c0,0.1,0.1,0.1,0.1,0.2c0.1,0.3,0,0.6-0.3,0.8c-0.3,0.3-0.7,0.3-1.1,0.1c0,0-24.7-13.8-25.7-14.3
		c-0.8,0.6-6.8,4.6-6.8,4.6s-4.4,3-4.3,3l-8.5,6.4c-0.3,0.3-0.8,0.2-1.1,0c-0.2-0.1-0.3-0.3-0.3-0.5s0-0.4,0.1-0.6
		c0,0,8.6-18.1,9.3-19.5c-1.3-0.7-13.8-7.7-13.8-7.7c-0.2-0.1-0.4-0.4-0.5-0.6c0-0.1,0-0.2,0-0.3c0.1-0.4,0.4-0.7,0.7-0.7
		c0,0,18.8-3.4,19.7-3.6c0.4-0.8,8.1-17.4,8.1-17.4c0.1-0.3,0.5-0.5,0.8-0.5c0.4,0,0.7,0.2,0.8,0.5c0,0,6,13.4,6.5,14.6
		c1.3-0.2,23.2-4.2,23.2-4.2c0.4-0.1,0.8,0.1,1,0.5c0,0.1,0,0.1,0.1,0.2C180.6,290.8,180.5,291.2,180.2,291.4z"/>
	<path class="st0" d="M303,333.9c-0.1-0.3-0.5-0.6-0.8-0.5c0,0-16.6,3-17.6,3.2c-0.4-1.1-5.3-13-5.3-13c-0.1-0.3-0.4-0.5-0.6-0.5
		c-0.3,0-0.5,0.2-0.6,0.4c0,0-5.5,14.4-5.8,15.1c-0.7,0.1-15,2.7-15,2.7c-0.3,0.1-0.5,0.3-0.5,0.6c0,0.1,0,0.2,0,0.3
		c0,0.2,0.2,0.4,0.4,0.6c0,0,9.7,6.4,10.8,7.1c-0.5,1.2-6.7,17-6.7,17c-0.1,0.2-0.1,0.3,0,0.5c0,0.2,0.1,0.4,0.3,0.5
		c0.3,0.2,0.6,0.3,0.9,0l6.4-5.5l3.3-2.5c0,0,4.5-3.5,5.1-3.9c0.7,0.5,20,13.2,20,13.2c0.3,0.2,0.6,0.1,0.8-0.1
		c0.2-0.2,0.2-0.5,0.2-0.7c0-0.1,0-0.1-0.1-0.2c0,0-8.8-20.6-9.3-21.7c0.7-0.6,4.3-3.5,4.3-3.5l9.9-8.1c0.2-0.2,0.3-0.5,0.3-0.8
		C303.1,334,303,334,303,333.9z M296.6,337.4l-7.4,6c0,0-2.6,2.2-3.2,2.6c0.4,0.9,6.9,16.2,6.9,16.2v0.1c0,0.2,0,0.4-0.1,0.5
		c-0.2,0.2-0.4,0.2-0.6,0.1c0,0-14.3-9.5-14.9-9.8c-0.4,0.3-3.8,2.9-3.8,2.9l-2.4,1.9l-4.8,4.1c-0.2,0.2-0.5,0.1-0.6,0
		s-0.2-0.2-0.2-0.4c0-0.1,0-0.2,0-0.4c0,0,4.6-11.7,5-12.7c-0.8-0.5-8-5.3-8-5.3c-0.1-0.1-0.2-0.2-0.3-0.4c0-0.1,0-0.1,0-0.2
		c0-0.2,0.2-0.4,0.4-0.5c0,0,10.7-1.9,11.2-2c0.2-0.5,4.3-11.3,4.3-11.3c0.1-0.2,0.3-0.3,0.5-0.3s0.4,0.2,0.5,0.4
		c0,0,3.6,8.9,3.9,9.7c0.8-0.1,13.1-2.4,13.1-2.4c0.2,0,0.5,0.1,0.6,0.4v0.1C296.8,337.1,296.7,337.3,296.6,337.4z"/>
	<path class="st0" d="M721,379.9c-0.1-0.3-0.5-0.6-0.8-0.5c0,0-16.6,3-17.6,3.2c-0.4-1.1-5.3-13-5.3-13c-0.1-0.3-0.4-0.5-0.6-0.5
		c-0.3,0-0.5,0.2-0.6,0.4c0,0-5.5,14.4-5.8,15.1c-0.7,0.1-15,2.7-15,2.7c-0.3,0.1-0.5,0.3-0.5,0.6c0,0.1,0,0.2,0,0.3
		c0,0.2,0.2,0.4,0.4,0.6c0,0,9.7,6.4,10.8,7.1c-0.5,1.2-6.7,17-6.7,17c-0.1,0.2-0.1,0.3,0,0.5c0,0.2,0.1,0.4,0.3,0.5
		c0.3,0.2,0.6,0.3,0.9,0l6.4-5.5l3.3-2.5c0,0,4.5-3.5,5.1-3.9c0.7,0.5,20,13.2,20,13.2c0.3,0.2,0.6,0.1,0.8-0.1s0.2-0.5,0.2-0.7
		c0-0.1,0-0.1-0.1-0.2c0,0-8.8-20.6-9.3-21.7c0.7-0.6,4.3-3.5,4.3-3.5l9.9-8.1c0.2-0.2,0.3-0.5,0.3-0.8C721.1,380,721,380,721,379.9
		z M714.6,383.4l-7.4,6c0,0-2.6,2.2-3.2,2.6c0.4,0.9,6.9,16.2,6.9,16.2v0.1c0,0.2,0,0.4-0.1,0.5c-0.2,0.2-0.4,0.2-0.6,0.1
		c0,0-14.3-9.5-14.9-9.8c-0.4,0.3-3.8,2.9-3.8,2.9l-2.4,1.9l-4.8,4.1c-0.2,0.2-0.5,0.1-0.6,0s-0.2-0.2-0.2-0.4c0-0.1,0-0.2,0-0.4
		c0,0,4.6-11.7,5-12.7c-0.8-0.5-8-5.3-8-5.3c-0.1-0.1-0.2-0.2-0.3-0.4c0-0.1,0-0.1,0-0.2c0-0.2,0.2-0.4,0.4-0.5c0,0,10.7-1.9,11.2-2
		c0.2-0.5,4.3-11.3,4.3-11.3c0.1-0.2,0.3-0.3,0.5-0.3s0.4,0.2,0.5,0.4c0,0,3.6,8.9,3.9,9.7c0.8-0.1,13.1-2.4,13.1-2.4
		c0.2,0,0.5,0.1,0.6,0.4v0.1C714.8,383.1,714.7,383.3,714.6,383.4z"/>
</g>
</svg>
